<svg xmlns="http://www.w3.org/2000/svg" viewBox="-5 13.8 47.2 35" data-asc="0.976">
  <defs/>
  <g fill="#f59e0b">
    <g transform="translate(0, 0)">
      <path d="M10.70 13.80L17.15 13.80Q19.40 13.80 21.55 14.30Q23.70 14.80 25.38 15.90Q27.05 17.00 28.05 18.80Q29.05 20.60 29.05 23.25Q29.05 25.35 28.18 27.42Q27.30 29.50 25.50 30.97Q23.70 32.45 20.85 32.75Q22.45 33.25 23.78 34.55Q25.10 35.85 25.95 37.15Q26 37.25 26.53 38.05Q27.05 38.85 27.83 40.02Q28.60 41.20 29.45 42.40Q30.30 43.60 31 44.50Q32.10 45.85 33 46.67Q33.90 47.50 34.90 47.88Q35.90 48.25 37.20 48.30L37.20 48.80L32.30 48.80Q29.60 48.80 27.40 48.30Q25.20 47.80 23.50 46.67Q21.80 45.55 20.55 43.60Q20.15 43 19.68 42.07Q19.20 41.15 18.70 40.10Q18.20 39.05 17.73 38.07Q17.25 37.10 16.90 36.30Q16.55 35.50 16.40 35.05Q15.75 33.45 14.88 32.65Q14 31.85 13 31.70L13 31.20Q13.15 31.20 13.60 31.20Q14.05 31.20 14.55 31.20Q15.90 31.20 17.18 30.65Q18.45 30.10 19.45 28.85Q20.45 27.60 20.85 25.40Q20.95 24.95 21.03 24.35Q21.10 23.75 21.05 23.00Q20.90 19.40 19.25 17.72Q17.60 16.05 15.15 16.00Q14.45 15.95 13.63 15.97Q12.80 16.00 12.13 16.00Q11.45 16.00 11.20 16.00Q11.20 15.95 11.08 15.42Q10.95 14.90 10.83 14.35Q10.70 13.80 10.70 13.80M11.35 13.80L11.35 48.80L3.85 48.80L3.85 13.80L11.35 13.80M4 45.15L4 48.80L0 48.80L0 48.30Q0.05 48.30 0.33 48.30Q0.60 48.30 0.65 48.30Q1.95 48.30 2.88 47.38Q3.80 46.45 3.85 45.15L4 45.15M4 17.45L3.85 17.45Q3.80 16.15 2.88 15.22Q1.95 14.30 0.65 14.30Q0.60 14.30 0.33 14.30Q0.05 14.30 0 14.30L0 13.80L4 13.80L4 17.45M11.20 45.15L11.35 45.15Q11.35 46.45 12.30 47.38Q13.25 48.30 14.55 48.30Q14.65 48.30 14.90 48.30Q15.15 48.30 15.15 48.30L15.15 48.80L11.20 48.80L11.20 45.15Z"/>
    </g>
  </g>
</svg>
