<svg xmlns="http://www.w3.org/2000/svg" viewBox="0 0 32 32">
  <!-- R glyph (same style, shifted left to make room for chevron) -->
  <path
    d="M0 10L8.15 10Q12.40 10 14.35 11.98Q16.30 13.95 16.30 18.05L16.30 20.20Q16.30 25.65 12.70 27.10L12.70 27.20Q14.70 27.80 15.52 29.65Q16.35 31.50 16.35 34.60L16.35 40.75Q16.35 42.25 16.45 43.17Q16.55 44.10 16.95 45L11.35 45Q11.05 44.15 10.95 43.40Q10.85 42.65 10.85 40.70L10.85 34.30Q10.85 31.90 10.07 30.95Q9.30 30 7.40 30L5.50 30L5.50 45L0 45L0 10M7.50 25Q9.15 25 9.97 24.15Q10.80 23.30 10.80 21.30L10.80 18.60Q10.80 16.70 10.13 15.85Q9.45 15 8 15L5.50 15L5.50 25L7.50 25Z"
    transform="translate(5 -6) scale(0.8)"
    fill="#00f0ff"
  />
  <!-- Small magenta chevron ">" to the right of the R -->
  <path
    d="M0 0 L5 6 L0 12"
    transform="translate(24 10)"
    fill="none"
    stroke="#ff00cc"
    stroke-width="2.5"
    stroke-linecap="round"
    stroke-linejoin="round"
  />
</svg>
